<svg width="74" height="74" viewBox="0 0 74 74" fill="none" xmlns="http://www.w3.org/2000/svg">
<path opacity="0.1" fill-rule="evenodd" clip-rule="evenodd" d="M37 72C56.33 72 72 56.33 72 37C72 17.67 56.33 2 37 2C17.67 2 2 17.67 2 37C2 56.33 17.67 72 37 72Z" stroke="#FF974A" stroke-width="3"/>
<path d="M66.3871 17.9819C60.1495 8.36325 49.3179 2 37 2" stroke="#FF974A" stroke-width="3" stroke-linecap="round" stroke-linejoin="round"/>
<path d="M21.648 32.2V29.878H25.986V43H23.394V32.2H21.648ZM28.3675 40.444V38.464L34.2535 30.04H37.1875V38.248H38.7715V40.444H37.1875V43H34.6675V40.444H28.3675ZM34.8295 32.74L31.1395 38.248H34.8295V32.74ZM40.0879 33.1C40.0879 32.188 40.3519 31.474 40.8799 30.958C41.4199 30.442 42.1099 30.184 42.9499 30.184C43.7899 30.184 44.4739 30.442 45.0019 30.958C45.5419 31.474 45.8119 32.188 45.8119 33.1C45.8119 34.024 45.5419 34.744 45.0019 35.26C44.4739 35.776 43.7899 36.034 42.9499 36.034C42.1099 36.034 41.4199 35.776 40.8799 35.26C40.3519 34.744 40.0879 34.024 40.0879 33.1ZM51.6439 30.4L44.5699 43H42.1219L49.1779 30.4H51.6439ZM42.9319 31.696C42.2719 31.696 41.9419 32.164 41.9419 33.1C41.9419 34.048 42.2719 34.522 42.9319 34.522C43.2559 34.522 43.5079 34.408 43.6879 34.18C43.8679 33.94 43.9579 33.58 43.9579 33.1C43.9579 32.164 43.6159 31.696 42.9319 31.696ZM47.9899 40.282C47.9899 39.358 48.2539 38.644 48.7819 38.14C49.3219 37.624 50.0119 37.366 50.8519 37.366C51.6919 37.366 52.3699 37.624 52.8859 38.14C53.4139 38.644 53.6779 39.358 53.6779 40.282C53.6779 41.206 53.4139 41.926 52.8859 42.442C52.3699 42.958 51.6919 43.216 50.8519 43.216C49.9999 43.216 49.3099 42.958 48.7819 42.442C48.2539 41.926 47.9899 41.206 47.9899 40.282ZM50.8339 38.878C50.1499 38.878 49.8079 39.346 49.8079 40.282C49.8079 41.23 50.1499 41.704 50.8339 41.704C51.5059 41.704 51.8419 41.23 51.8419 40.282C51.8419 39.346 51.5059 38.878 50.8339 38.878Z" fill="#FAFAFB"/>
</svg>
