<svg width="74" height="74" viewBox="0 0 74 74" fill="none" xmlns="http://www.w3.org/2000/svg">
<path opacity="0.1" fill-rule="evenodd" clip-rule="evenodd" d="M37 72C56.33 72 72 56.33 72 37C72 17.67 56.33 2 37 2C17.67 2 2 17.67 2 37C2 56.33 17.67 72 37 72Z" stroke="#CDE1FF" stroke-width="3"/>
<path d="M49.6049 69.6615C62.7065 64.6019 72 51.8863 72 37C72 17.67 56.33 2 37 2" stroke="#CDE1FF" stroke-width="3" stroke-linecap="round" stroke-linejoin="round"/>
<path d="M18.846 40.444V38.464L24.732 30.04H27.666V38.248H29.25V40.444H27.666V43H25.146V40.444H18.846ZM25.308 32.74L21.618 38.248H25.308V32.74ZM37.6584 33.154C37.5384 32.65 37.3284 32.272 37.0284 32.02C36.7404 31.768 36.3204 31.642 35.7684 31.642C34.9404 31.642 34.3284 31.978 33.9324 32.65C33.5484 33.31 33.3504 34.39 33.3384 35.89C33.6264 35.41 34.0464 35.038 34.5984 34.774C35.1504 34.498 35.7504 34.36 36.3984 34.36C37.1784 34.36 37.8684 34.528 38.4684 34.864C39.0684 35.2 39.5364 35.692 39.8724 36.34C40.2084 36.976 40.3764 37.744 40.3764 38.644C40.3764 39.496 40.2024 40.258 39.8544 40.93C39.5184 41.59 39.0204 42.106 38.3604 42.478C37.7004 42.85 36.9144 43.036 36.0024 43.036C34.7544 43.036 33.7704 42.76 33.0504 42.208C32.3424 41.656 31.8444 40.888 31.5564 39.904C31.2804 38.908 31.1424 37.684 31.1424 36.232C31.1424 34.036 31.5204 32.38 32.2764 31.264C33.0324 30.136 34.2264 29.572 35.8584 29.572C37.1184 29.572 38.0964 29.914 38.7924 30.598C39.4884 31.282 39.8904 32.134 39.9984 33.154H37.6584ZM35.8224 36.43C35.1864 36.43 34.6524 36.616 34.2204 36.988C33.7884 37.36 33.5724 37.9 33.5724 38.608C33.5724 39.316 33.7704 39.874 34.1664 40.282C34.5744 40.69 35.1444 40.894 35.8764 40.894C36.5244 40.894 37.0344 40.696 37.4064 40.3C37.7904 39.904 37.9824 39.37 37.9824 38.698C37.9824 38.002 37.7964 37.45 37.4244 37.042C37.0644 36.634 36.5304 36.43 35.8224 36.43ZM42.0801 33.1C42.0801 32.188 42.3441 31.474 42.8721 30.958C43.4121 30.442 44.1021 30.184 44.9421 30.184C45.7821 30.184 46.4661 30.442 46.9941 30.958C47.5341 31.474 47.8041 32.188 47.8041 33.1C47.8041 34.024 47.5341 34.744 46.9941 35.26C46.4661 35.776 45.7821 36.034 44.9421 36.034C44.1021 36.034 43.4121 35.776 42.8721 35.26C42.3441 34.744 42.0801 34.024 42.0801 33.1ZM53.6361 30.4L46.5621 43H44.1141L51.1701 30.4H53.6361ZM44.9241 31.696C44.2641 31.696 43.9341 32.164 43.9341 33.1C43.9341 34.048 44.2641 34.522 44.9241 34.522C45.2481 34.522 45.5001 34.408 45.6801 34.18C45.8601 33.94 45.9501 33.58 45.9501 33.1C45.9501 32.164 45.6081 31.696 44.9241 31.696ZM49.9821 40.282C49.9821 39.358 50.2461 38.644 50.7741 38.14C51.3141 37.624 52.0041 37.366 52.8441 37.366C53.6841 37.366 54.3621 37.624 54.8781 38.14C55.4061 38.644 55.6701 39.358 55.6701 40.282C55.6701 41.206 55.4061 41.926 54.8781 42.442C54.3621 42.958 53.6841 43.216 52.8441 43.216C51.9921 43.216 51.3021 42.958 50.7741 42.442C50.2461 41.926 49.9821 41.206 49.9821 40.282ZM52.8261 38.878C52.1421 38.878 51.8001 39.346 51.8001 40.282C51.8001 41.23 52.1421 41.704 52.8261 41.704C53.4981 41.704 53.8341 41.23 53.8341 40.282C53.8341 39.346 53.4981 38.878 52.8261 38.878Z" fill="#FAFAFB"/>
</svg>
