<svg width="74" height="74" viewBox="0 0 74 74" fill="none" xmlns="http://www.w3.org/2000/svg">
<path opacity="0.1" fill-rule="evenodd" clip-rule="evenodd" d="M37 72C56.33 72 72 56.33 72 37C72 17.67 56.33 2 37 2C17.67 2 2 17.67 2 37C2 56.33 17.67 72 37 72Z" stroke="#5F35E3" stroke-width="3"/>
<path d="M7.64648 56.07C13.8893 65.6596 24.7042 72 36.9999 72C56.3299 72 71.9999 56.33 71.9999 37C71.9999 17.67 56.3299 2 36.9999 2" stroke="#5F35E3" stroke-width="3" stroke-linecap="round" stroke-linejoin="round"/>
<path d="M28.306 31.786L23.518 43H20.962L25.786 32.074H19.63V29.914H28.306V31.786ZM29.7073 40.444V38.464L35.5933 30.04H38.5273V38.248H40.1113V40.444H38.5273V43H36.0073V40.444H29.7073ZM36.1693 32.74L32.4793 38.248H36.1693V32.74ZM41.4277 33.1C41.4277 32.188 41.6917 31.474 42.2197 30.958C42.7597 30.442 43.4497 30.184 44.2897 30.184C45.1297 30.184 45.8137 30.442 46.3417 30.958C46.8817 31.474 47.1517 32.188 47.1517 33.1C47.1517 34.024 46.8817 34.744 46.3417 35.26C45.8137 35.776 45.1297 36.034 44.2897 36.034C43.4497 36.034 42.7597 35.776 42.2197 35.26C41.6917 34.744 41.4277 34.024 41.4277 33.1ZM52.9837 30.4L45.9097 43H43.4617L50.5177 30.4H52.9837ZM44.2717 31.696C43.6117 31.696 43.2817 32.164 43.2817 33.1C43.2817 34.048 43.6117 34.522 44.2717 34.522C44.5957 34.522 44.8477 34.408 45.0277 34.18C45.2077 33.94 45.2977 33.58 45.2977 33.1C45.2977 32.164 44.9557 31.696 44.2717 31.696ZM49.3297 40.282C49.3297 39.358 49.5937 38.644 50.1217 38.14C50.6617 37.624 51.3517 37.366 52.1917 37.366C53.0317 37.366 53.7097 37.624 54.2257 38.14C54.7537 38.644 55.0177 39.358 55.0177 40.282C55.0177 41.206 54.7537 41.926 54.2257 42.442C53.7097 42.958 53.0317 43.216 52.1917 43.216C51.3397 43.216 50.6497 42.958 50.1217 42.442C49.5937 41.926 49.3297 41.206 49.3297 40.282ZM52.1737 38.878C51.4897 38.878 51.1477 39.346 51.1477 40.282C51.1477 41.23 51.4897 41.704 52.1737 41.704C52.8457 41.704 53.1817 41.23 53.1817 40.282C53.1817 39.346 52.8457 38.878 52.1737 38.878Z" fill="#FAFAFB"/>
</svg>
