<svg width="74" height="74" viewBox="0 0 74 74" fill="none" xmlns="http://www.w3.org/2000/svg">
<path opacity="0.1" fill-rule="evenodd" clip-rule="evenodd" d="M37 72C56.33 72 72 56.33 72 37C72 17.67 56.33 2 37 2C17.67 2 2 17.67 2 37C2 56.33 17.67 72 37 72Z" stroke="#CDE1FF" stroke-width="3"/>
<path fill-rule="evenodd" clip-rule="evenodd" d="M44.7273 30.6522C46.1474 32.3789 47 34.5899 47 37C47 42.5228 42.5228 47 37 47C31.4772 47 27 42.5228 27 37C27 31.4771 31.4772 27 37 27C39.3924 27 41.5886 27.8401 43.3096 29.2415L43.8604 28.6906L44.1222 27.2963C44.2241 26.7535 44.7468 26.396 45.2896 26.4979C45.8324 26.5998 46.1898 27.1225 46.0879 27.6653L46.0308 27.9692L46.3348 27.9122C46.8776 27.8103 47.4002 28.1677 47.5021 28.7105C47.604 29.2533 47.2466 29.7759 46.7038 29.8778L45.2239 30.1557L44.7273 30.6522ZM41.8861 30.665C40.5346 29.6211 38.8398 29 37 29C32.5817 29 29 32.5817 29 37C29 41.4183 32.5817 45 37 45C41.4183 45 45 41.4183 45 37C45 35.1424 44.3669 33.4327 43.3047 32.0749L41.8763 33.5032C42.5835 34.4878 43 35.6952 43 37C43 40.3137 40.3137 43 37 43C33.6863 43 31 40.3137 31 37C31 33.6863 33.6863 31 37 31C38.2869 31 39.4792 31.4051 40.4562 32.0948L41.8861 30.665ZM39.0101 33.541C38.4195 33.197 37.7327 33 37 33C34.7909 33 33 34.7909 33 37C33 39.2091 34.7909 41 37 41C39.2091 41 41 39.2091 41 37C41 36.2491 40.7931 35.5466 40.4332 34.9463L38.9248 36.4547C38.9738 36.6281 39 36.811 39 37C39 38.1046 38.1046 39 37 39C35.8954 39 35 38.1046 35 37C35 35.8954 35.8954 35 37 35C37.1692 35 37.3336 35.021 37.4905 35.0606L39.0101 33.541Z" fill="#CDE1FF"/>
<path d="M2 37C2 56.33 17.67 72 37 72V72C56.33 72 72 56.33 72 37C72 17.67 56.33 2 37 2" stroke="#CDE1FF" stroke-width="3" stroke-linecap="round" stroke-linejoin="round"/>
</svg>
