<svg width="74" height="74" viewBox="0 0 74 74" fill="none" xmlns="http://www.w3.org/2000/svg">
<path opacity="0.1" fill-rule="evenodd" clip-rule="evenodd" d="M37 72C56.33 72 72 56.33 72 37C72 17.67 56.33 2 37 2C17.67 2 2 17.67 2 37C2 56.33 17.67 72 37 72Z" stroke="#5F35E3" stroke-width="3"/>
<path d="M2 37C2 56.33 17.67 72 37 72V72C56.33 72 72 56.33 72 37C72 17.67 56.33 2 37 2" stroke="#5F35E3" stroke-width="3" stroke-linecap="round" stroke-linejoin="round"/>
<path fill-rule="evenodd" clip-rule="evenodd" d="M46 33H28V36C28 36.5523 28.4477 37 29 37H45C45.5523 37 46 36.5523 46 36V33ZM32 31C32 29.3431 33.3431 28 35 28H39C40.6569 28 42 29.3431 42 31H46C47.1046 31 48 31.8954 48 33V43C48 45.2091 46.2091 47 44 47H30C27.7909 47 26 45.2091 26 43V33C26 31.8954 26.8954 31 28 31H32ZM34 31H40C40 30.4477 39.5523 30 39 30H35C34.4477 30 34 30.4477 34 31ZM34 39H29C28.6494 39 28.3128 38.9398 28 38.8293V43C28 44.1046 28.8954 45 30 45H44C45.1046 45 46 44.1046 46 43V38.8293C45.6872 38.9398 45.3506 39 45 39H40V40.6C40 41.3732 39.3732 42 38.6 42H35.4C34.6268 42 34 41.3732 34 40.6V39ZM36 40H38V39H36V40Z" fill="#5F35E3"/>
</svg>
