<svg width="95" height="26" viewBox="0 0 95 26" fill="none" xmlns="http://www.w3.org/2000/svg">
<path d="M12.9911 20.2871C8.90787 20.2871 5.75732 17.0536 5.75732 13.0325C5.75732 9.01143 8.86642 5.79871 12.9911 5.79871C15.3748 5.79871 17.7377 7.00089 18.7741 9.23943L16.3075 10.6282C15.6028 9.38453 14.525 8.63834 12.8668 8.63834C10.5246 8.63834 8.86642 10.5453 8.86642 13.074C8.86642 15.6856 10.5453 17.5303 12.9911 17.5303C14.3591 17.5303 15.3541 17.178 15.9966 16.5147L15.9759 13.4263H18.9191V17.5303C17.9035 19.0642 15.7479 20.2871 12.9911 20.2871Z" fill="white"/>
<path d="M39.0811 20.2871C37.4644 20.2871 36.4695 19.4373 35.9306 17.7169L32.3448 6.04743H35.4538L38.6666 16.8463C38.7495 17.1158 38.8946 17.2609 39.1018 17.2609C39.3091 17.2609 39.4335 17.1158 39.5164 16.8463L42.7084 6.04743H45.8175L42.2317 17.7169C41.6928 19.4373 40.6978 20.2871 39.0811 20.2871Z" fill="white"/>
<path d="M47.5333 6.04743H50.5595V19.9969H47.5333V6.04743Z" fill="white"/>
<path d="M63.829 19.9969H56.3257C54.3981 19.9969 53.6519 19.002 53.6519 17.406V8.65907C53.6519 7.06307 54.3981 6.04743 56.3257 6.04743H63.7046V8.76271H56.6781V11.6645H63.2694V14.3798H56.6781V17.2816H63.829V19.9969Z" fill="white"/>
<path d="M85.8925 6.04743H88.9187V19.9969H85.8925V6.04743Z" fill="white"/>
<path d="M26.6689 5.75743C28.2856 5.75743 29.2805 6.60725 29.8195 8.32761L33.4053 19.9971L30.2962 19.9971L27.0835 9.19816C27.0005 8.9287 26.8555 8.78361 26.6482 8.78361C26.4409 8.78361 26.3165 8.9287 26.2336 9.19816L23.0416 19.9971L19.9325 19.9971L23.5184 8.32761C24.0573 6.60725 25.0522 5.75743 26.6689 5.75743Z" fill="white"/>
<path d="M77.2319 5.75743C78.8486 5.75743 79.8435 6.60725 80.3824 8.32761L83.9683 19.9971L80.8592 19.9971L77.6464 9.19816C77.5635 8.92871 77.4184 8.78361 77.2112 8.78361C77.0039 8.78361 76.8795 8.92871 76.7966 9.19816L73.6046 19.9971L70.4955 19.9971L74.0814 8.32761C74.6203 6.60725 75.6152 5.75743 77.2319 5.75743Z" fill="white"/>
</svg>
