<svg width="247" height="46" viewBox="0 0 247 46" fill="none" xmlns="http://www.w3.org/2000/svg">
<path d="M2 34.0538C2 34.0538 11.5789 31.964 22.4695 36.9844C43.1828 46.5329 44.3644 29.0473 52.0451 20.6162C59.0721 12.9026 64.8918 17.6089 72.7158 27.042C78.4864 33.9994 86.8963 45.678 95.6056 43.7979C103.567 42.0793 109.211 28.3819 120.246 24.8984C128.992 22.1375 136.099 29.7224 146.171 27.042C159.833 23.406 161.868 9.47775 171.632 9.47775C183.684 9.47775 191.232 34.3315 202.195 34.3315C213.094 34.3315 218.701 9.76193 230.623 17.2205C239.737 22.9227 245 2 245 2" stroke="#5F35E3" stroke-width="3" stroke-linecap="round" stroke-linejoin="round"/>
</svg>
