<svg width="309" height="55" viewBox="0 0 309 55" fill="none" xmlns="http://www.w3.org/2000/svg">
<path d="M27.071 54.0673C11.9619 54.0673 0.304199 42.1028 0.304199 27.2238C0.304199 12.3449 11.8085 0.457031 27.071 0.457031C35.891 0.457031 44.6343 4.90538 48.4691 13.1885L39.3423 18.3271C36.7346 13.7254 32.7465 10.9643 26.6108 10.9643C17.9442 10.9643 11.8085 18.0203 11.8085 27.3772C11.8085 37.0409 18.0209 43.8668 27.071 43.8668C32.1329 43.8668 35.8143 42.5629 38.1919 40.1087L38.1152 28.681H49.0059V43.8668C45.2479 49.5423 37.2715 54.0673 27.071 54.0673Z" fill="white"/>
<path d="M123.61 54.0673C117.628 54.0673 113.946 50.9228 111.952 44.557L98.6838 1.37738H110.188L122.076 41.3358C122.383 42.3329 122.92 42.8697 123.687 42.8697C124.453 42.8697 124.914 42.3329 125.22 41.3358L137.032 1.37738H148.536L135.268 44.557C133.273 50.9228 129.592 54.0673 123.61 54.0673Z" fill="white"/>
<path d="M154.885 1.37738H166.082V52.9936H154.885V1.37738Z" fill="white"/>
<path d="M215.183 52.9936H187.419C180.286 52.9936 177.525 49.3122 177.525 43.4066V11.041C177.525 5.13547 180.286 1.37738 187.419 1.37738H214.722V11.4245H188.723V22.1619H213.112V32.209H188.723V42.9464H215.183V52.9936Z" fill="white"/>
<path d="M296.823 1.37738H308.02V52.9936H296.823V1.37738Z" fill="white"/>
<path d="M77.6816 0.30422C83.6638 0.30422 87.3452 3.44874 89.3393 9.81449L102.608 52.9941L91.1033 52.9941L79.2155 13.0357C78.9087 12.0387 78.3718 11.5018 77.6049 11.5018C76.8379 11.5018 76.3778 12.0387 76.071 13.0357L64.2598 52.9941L52.7555 52.9941L66.0238 9.81448C68.0179 3.44874 71.6993 0.304219 77.6816 0.30422Z" fill="white"/>
<path d="M264.777 0.30422C270.759 0.30422 274.441 3.44875 276.435 9.81449L289.703 52.9941L278.199 52.9941L266.311 13.0357C266.004 12.0387 265.467 11.5018 264.7 11.5018C263.933 11.5018 263.473 12.0387 263.166 13.0357L251.355 52.9941L239.851 52.9941L253.119 9.81448C255.113 3.44875 258.795 0.304219 264.777 0.30422Z" fill="white"/>
</svg>
