<svg width="265" height="300" viewBox="0 0 265 300" fill="none" xmlns="http://www.w3.org/2000/svg">
<rect width="265" height="300" fill="#2F2F2F"/>
<path d="M154.5 85L120.5 85C115.529 85 111.5 89.0294 111.5 94L111.5 132.5C111.5 137.471 107.471 141.5 102.5 141.5L97 141.5" stroke="white" stroke-width="0.4" stroke-dasharray="2 2"/>
<path d="M154.5 214.5L120.5 214.5C115.529 214.5 111.5 210.471 111.5 205.5L111.5 167C111.5 162.029 107.471 158 102.5 158L97 158" stroke="white" stroke-width="0.4" stroke-dasharray="2 2"/>
<circle cx="70" cy="150" r="30" fill="url(#paint0_linear_1913_98)"/>
<path d="M53.0982 153.73C50.9966 153.73 49.375 152.066 49.375 149.997C49.375 147.927 50.9752 146.273 53.0982 146.273C54.325 146.273 55.5412 146.892 56.0746 148.044L54.8051 148.759C54.4424 148.119 53.8876 147.735 53.0342 147.735C51.8287 147.735 50.9752 148.716 50.9752 150.018C50.9752 151.362 51.8393 152.312 53.0982 152.312C53.8023 152.312 54.3143 152.13 54.645 151.789L54.6344 150.199H56.1492V152.312C55.6265 153.101 54.517 153.73 53.0982 153.73Z" fill="white"/>
<path d="M66.5264 153.73C65.6943 153.73 65.1822 153.293 64.9048 152.408L63.0593 146.401H64.6595L66.313 151.96C66.3557 152.098 66.4304 152.173 66.5371 152.173C66.6437 152.173 66.7078 152.098 66.7504 151.96L68.3933 146.401H69.9935L68.1479 152.408C67.8706 153.293 67.3585 153.73 66.5264 153.73Z" fill="white"/>
<path d="M70.8766 146.401H72.4342V153.581H70.8766V146.401Z" fill="white"/>
<path d="M79.2639 153.581H75.402C74.4099 153.581 74.0258 153.069 74.0258 152.248V147.746C74.0258 146.924 74.4099 146.401 75.402 146.401H79.1999V147.799H75.5834V149.293H78.9758V150.69H75.5834V152.184H79.2639V153.581Z" fill="white"/>
<path d="M60.1374 146.249C60.9695 146.249 61.4815 146.687 61.7589 147.572L63.6045 153.578L62.0043 153.578L60.3507 148.02C60.308 147.881 60.2334 147.807 60.1267 147.807C60.02 147.807 59.956 147.881 59.9133 148.02L58.2704 153.578L56.6702 153.578L58.5158 147.572C58.7932 146.687 59.3052 146.249 60.1374 146.249Z" fill="white"/>
<path d="M86.1627 146.249C86.9949 146.249 87.5069 146.687 87.7843 147.572L89.6299 153.578L88.0297 153.578L86.3761 148.02C86.3334 147.881 86.2588 147.807 86.1521 147.807C86.0454 147.807 85.9814 147.881 85.9387 148.02L84.2958 153.578L82.6956 153.578L84.5412 147.572C84.8186 146.687 85.3306 146.249 86.1627 146.249Z" fill="white"/>
<path d="M90.8887 146.566H92.4462V153.746H90.8887V146.566Z" fill="white"/>
<rect x="155" y="71" width="80" height="28" rx="8" fill="white"/>
<rect x="155" y="201" width="80" height="28" rx="8" fill="#1D74F7"/>
<defs>
<linearGradient id="paint0_linear_1913_98" x1="74.35" y1="120" x2="74.35" y2="192.188" gradientUnits="userSpaceOnUse">
<stop stop-color="#E16A6A"/>
<stop offset="1" stop-color="#5400FF"/>
</linearGradient>
</defs>
</svg>
