<svg width="97" height="17" viewBox="0 0 97 17" fill="none" xmlns="http://www.w3.org/2000/svg">
<path d="M8.52877 16.9476C3.83609 16.9476 0.215332 13.2315 0.215332 8.61032C0.215332 3.98909 3.78844 0.296875 8.52877 0.296875C11.2682 0.296875 13.9837 1.67848 15.1748 4.25112L12.3401 5.84711C11.5302 4.41787 10.2915 3.56032 8.38585 3.56032C5.6941 3.56032 3.78844 5.75183 3.78844 8.65796C3.78844 11.6594 5.71792 13.7794 8.52877 13.7794C10.1009 13.7794 11.2443 13.3745 11.9828 12.6122L11.959 9.06291H15.3415V13.7794C14.1743 15.5422 11.6969 16.9476 8.52877 16.9476Z" fill="white"/>
<path d="M38.5126 16.9476C36.6546 16.9476 35.5112 15.9709 34.8918 13.9938L30.7708 0.582725H34.3439L38.0362 12.9933C38.1314 13.303 38.2982 13.4697 38.5364 13.4697C38.7746 13.4697 38.9175 13.303 39.0128 12.9933L42.6812 0.582725H46.2543L42.1333 13.9938C41.514 15.9709 40.3706 16.9476 38.5126 16.9476Z" fill="white"/>
<path d="M48.2262 0.582725H51.7041V16.6141H48.2262V0.582725Z" fill="white"/>
<path d="M66.954 16.6141H58.3309C56.1156 16.6141 55.258 15.4707 55.258 13.6365V3.58414C55.258 1.74994 56.1156 0.582725 58.3309 0.582725H66.8111V3.70324H58.7358V7.03815H66.3108V10.1587H58.7358V13.4936H66.954V16.6141Z" fill="white"/>
<path d="M24.2475 0.248422C26.1055 0.248422 27.2489 1.22507 27.8683 3.2022L31.9893 16.6133L28.4161 16.6133L24.7239 4.20267C24.6286 3.893 24.4619 3.72625 24.2237 3.72625C23.9855 3.72625 23.8426 3.893 23.7473 4.20267L20.0789 16.6133L16.5058 16.6133L20.6268 3.2022C21.2461 1.22507 22.3895 0.248422 24.2475 0.248422Z" fill="white"/>
<path d="M82.3569 0.248422C84.2149 0.248422 85.3583 1.22508 85.9776 3.2022L90.0986 16.6133L86.5255 16.6133L82.8333 4.20267C82.738 3.893 82.5713 3.72625 82.3331 3.72625C82.0949 3.72625 81.9519 3.893 81.8567 4.20267L78.1883 16.6133L74.6151 16.6133L78.7361 3.2022C79.3555 1.22507 80.4989 0.248422 82.3569 0.248422Z" fill="url(#paint0_linear_1921_200)"/>
<path d="M92.9111 0.964844H96.389V16.9962H92.9111V0.964844Z" fill="url(#paint1_linear_1921_200)"/>
<defs>
<linearGradient id="paint0_linear_1921_200" x1="79.2326" y1="1.41649" x2="74.7064" y2="18.6158" gradientUnits="userSpaceOnUse">
<stop stop-color="#E16A6A"/>
<stop offset="1" stop-color="#5400FF"/>
</linearGradient>
<linearGradient id="paint1_linear_1921_200" x1="94.6501" y1="0.964844" x2="94.6501" y2="16.9962" gradientUnits="userSpaceOnUse">
<stop stop-color="#E16B6B"/>
<stop offset="1" stop-color="#5400FF"/>
</linearGradient>
</defs>
</svg>
